<?xml version="1.0" standalone="no"?>
<!DOCTYPE svg PUBLIC "-//W3C//DTD SVG 20010904//EN"
 "http://www.w3.org/TR/2001/REC-SVG-20010904/DTD/svg10.dtd">
<svg version="1.0" xmlns="http://www.w3.org/2000/svg"
 width="864.000000pt" height="504.000000pt" viewBox="0 0 864.000000 504.000000"
 preserveAspectRatio="xMidYMid meet">

<g transform="translate(0.000000,504.000000) scale(0.100000,-0.100000)"
fill="#000000" stroke="none">
<path d="M3879 3210 c-49 -14 -90 -54 -119 -115 -70 -143 -66 -415 8 -535 64
-105 225 -123 287 -32 l24 35 7 -41 c6 -40 8 -42 40 -42 l34 0 0 190 0 190
-110 0 -110 0 0 -60 0 -60 45 0 c43 0 45 -1 45 -30 0 -99 -82 -147 -133 -78
-38 50 -44 310 -10 406 17 47 47 62 89 43 27 -12 54 -65 54 -106 0 -29 7 -30
80 -14 l51 11 -6 41 c-8 50 -39 124 -63 151 -41 46 -142 68 -213 46z"/>
<path d="M1202 2908 c3 -302 3 -303 28 -347 37 -67 77 -86 180 -86 106 0 151
23 184 94 20 43 21 65 24 344 l3 297 -65 0 -66 0 0 -280 0 -281 -25 -24 c-26
-27 -46 -31 -75 -15 -34 18 -40 65 -40 336 l0 264 -76 0 -76 0 4 -302z"/>
<path d="M1730 2845 l0 -365 61 0 61 0 -4 238 -3 238 53 -156 c29 -85 66 -191
81 -235 l28 -80 61 -3 62 -3 0 366 0 365 -61 0 -60 0 3 -210 c2 -116 3 -210 2
-210 0 0 -31 95 -69 210 l-69 210 -73 0 -73 0 0 -365z"/>
<path d="M2250 2846 l0 -366 118 0 c64 0 134 5 156 11 61 17 121 84 145 163
54 175 30 394 -53 484 -48 53 -91 66 -233 70 l-133 4 0 -366z m248 212 c11
-13 25 -43 31 -68 14 -59 14 -236 0 -300 -13 -60 -37 -80 -96 -80 l-43 0 0
235 0 235 43 0 c32 0 49 -6 65 -22z"/>
<path d="M2790 2845 l0 -365 190 0 190 0 0 65 0 65 -115 0 -115 0 0 90 0 90
90 0 90 0 0 60 0 60 -90 0 -90 0 0 85 0 85 115 0 115 0 0 65 0 65 -190 0 -190
0 0 -365z"/>
<path d="M3240 2846 l0 -366 70 0 70 0 0 145 c0 145 0 145 23 145 21 0 27 -12
64 -142 l40 -143 76 -3 c42 -2 77 1 77 5 0 5 -22 76 -50 157 l-50 149 35 38
c42 46 58 104 53 184 -5 74 -30 128 -76 163 -34 26 -41 27 -184 30 l-148 4 0
-366z m202 244 c46 -13 58 -34 58 -100 0 -64 -30 -100 -85 -100 l-35 0 0 105
c0 115 -2 112 62 95z"/>
<path d="M4260 2846 l0 -366 70 0 70 0 0 145 c0 145 0 145 23 145 21 0 27 -12
64 -142 l40 -143 149 0 149 0 14 78 13 77 73 0 73 0 12 -80 12 -80 74 0 c59 0
74 3 74 15 0 14 -145 661 -156 698 -4 14 -18 17 -82 17 l-77 0 -79 -347 c-43
-192 -82 -354 -86 -362 -4 -8 -28 48 -59 139 l-51 152 34 38 c40 44 56 93 56
165 -1 76 -28 143 -73 179 l-39 31 -149 3 -149 4 0 -366z m209 243 c40 -14 51
-35 51 -99 0 -64 -30 -100 -85 -100 l-35 0 0 105 c0 116 1 118 69 94z m482
-198 c12 -58 23 -110 26 -118 4 -10 -8 -13 -51 -13 -31 0 -56 4 -56 9 0 5 8
51 19 102 10 52 22 112 27 134 6 33 8 35 11 15 2 -14 13 -72 24 -129z"/>
<path d="M5230 2846 l0 -366 118 0 c64 0 134 5 156 11 61 17 121 84 145 163
54 175 30 394 -53 484 -48 53 -91 66 -233 70 l-133 4 0 -366z m247 214 c28
-26 43 -101 43 -220 0 -123 -14 -195 -43 -215 -12 -8 -41 -15 -64 -15 l-43 0
0 235 0 235 43 0 c29 0 50 -6 64 -20z"/>
<path d="M5762 2908 c3 -302 3 -303 28 -347 37 -67 77 -86 180 -86 106 0 151
23 184 94 20 43 21 65 24 344 l3 297 -65 0 -66 0 0 -280 0 -281 -25 -24 c-26
-27 -46 -31 -75 -15 -34 18 -40 65 -40 336 l0 264 -76 0 -76 0 4 -302z"/>
<path d="M6286 2863 c-44 -192 -81 -356 -84 -366 -4 -16 2 -18 64 -15 l69 3
14 78 13 77 73 0 73 0 12 -80 12 -80 79 0 c58 0 77 3 74 13 -3 6 -39 163 -80
347 -42 184 -78 343 -81 353 -4 14 -18 17 -82 17 l-77 0 -79 -347z m175 28
c12 -58 23 -110 26 -118 4 -10 -8 -13 -51 -13 -31 0 -56 4 -56 9 0 5 8 51 19
102 10 52 22 112 27 134 6 33 8 35 11 15 2 -14 13 -72 24 -129z"/>
<path d="M6650 3140 l0 -70 60 0 60 0 0 -295 0 -295 75 0 75 0 0 295 0 295 60
0 60 0 0 70 0 70 -195 0 -195 0 0 -70z"/>
<path d="M7100 2845 l0 -365 190 0 190 0 0 65 0 65 -115 0 -115 0 0 90 0 90
90 0 90 0 0 60 0 60 -90 0 -90 0 0 85 0 85 115 0 115 0 0 65 0 65 -190 0 -190
0 0 -365z"/>
<path d="M1609 2317 c-114 -60 -145 -242 -59 -340 16 -18 66 -53 110 -77 81
-44 100 -65 100 -111 0 -28 -44 -69 -73 -69 -34 0 -74 35 -82 70 -4 16 -10 31
-13 33 -4 2 -33 -6 -64 -17 l-57 -21 18 -53 c35 -101 111 -149 223 -139 123
11 188 90 188 228 0 66 -4 81 -26 115 -32 47 -46 57 -143 109 -81 43 -100 68
-87 119 8 31 44 51 79 43 13 -4 32 -22 43 -42 10 -19 21 -35 25 -35 4 0 28 9
54 21 43 19 46 23 40 47 -28 118 -166 177 -276 119z"/>
<path d="M3525 2327 c-57 -23 -85 -49 -115 -111 -76 -156 -58 -466 33 -565 77
-83 236 -79 310 8 29 35 57 116 57 168 l0 33 -60 0 c-56 0 -60 -2 -65 -25 -3
-14 -7 -36 -10 -50 -8 -36 -40 -65 -73 -65 -60 0 -81 63 -82 237 0 179 25 253
85 253 38 0 62 -32 76 -101 l12 -62 60 7 c33 3 63 8 65 11 9 9 -18 137 -37
174 -11 20 -27 44 -38 53 -49 44 -152 61 -218 35z"/>
<path d="M6713 2329 c-53 -15 -101 -73 -126 -153 -18 -59 -21 -95 -21 -206 0
-199 35 -306 116 -355 50 -30 170 -28 221 3 80 50 112 152 111 352 0 167 -23
257 -80 314 -52 52 -137 69 -221 45z m116 -138 c25 -25 34 -113 29 -284 -4
-146 -17 -187 -61 -187 -56 1 -70 38 -75 197 -2 73 -1 157 2 187 12 91 61 131
105 87z"/>
<path d="M590 1966 l0 -366 70 0 70 0 0 145 c0 145 0 145 23 145 21 0 27 -12
64 -142 l40 -143 76 -3 c42 -2 77 1 77 6 0 5 -23 76 -50 157 l-50 147 34 38
c42 47 59 105 54 185 -5 74 -30 128 -76 163 -34 26 -41 27 -184 30 l-148 4 0
-366z m202 244 c46 -13 58 -34 58 -100 0 -64 -30 -100 -85 -100 l-35 0 0 105
c0 115 -2 112 62 95z"/>
<path d="M1090 1965 l0 -365 190 0 190 0 0 65 0 65 -115 0 -115 0 0 90 0 90
90 0 90 0 0 60 0 60 -90 0 -90 0 0 85 0 85 115 0 115 0 0 65 0 65 -190 0 -190
0 0 -365z"/>
<path d="M1980 1965 l0 -365 258 2 257 3 14 78 13 77 73 0 73 0 12 -80 12 -80
79 0 c58 0 77 3 74 13 -3 6 -39 163 -80 347 -42 184 -78 343 -81 353 -4 14
-18 17 -82 17 l-77 0 -80 -352 c-68 -299 -80 -345 -83 -300 l-3 52 -115 0
-114 0 0 90 0 90 90 0 90 0 0 60 0 60 -90 0 -90 0 0 85 0 85 115 0 115 0 0 65
0 65 -190 0 -190 0 0 -365z m641 46 c12 -58 23 -110 26 -118 4 -10 -8 -13 -51
-13 -31 0 -56 4 -56 9 0 5 8 51 19 102 10 52 22 112 27 134 6 33 8 35 11 15 2
-14 13 -72 24 -129z"/>
<path d="M2890 1966 l0 -366 70 0 70 0 0 145 c0 145 0 145 23 145 21 0 27 -12
64 -142 l40 -143 76 -3 c42 -2 77 1 77 6 0 5 -23 76 -50 157 l-50 147 34 38
c42 47 59 105 54 185 -5 74 -30 128 -76 163 -34 26 -41 27 -184 30 l-148 4 0
-366z m202 244 c46 -13 58 -34 58 -100 0 -64 -30 -100 -85 -100 l-35 0 0 105
c0 115 -2 112 62 95z"/>
<path d="M3890 1965 l0 -365 75 0 75 0 0 155 0 155 55 0 55 0 0 -155 0 -155
75 0 75 0 0 365 0 365 -75 0 -75 0 0 -145 0 -145 -55 0 -55 0 0 145 0 145 -75
0 -75 0 0 -365z"/>
<path d="M4540 1965 l0 -365 61 0 61 0 -4 238 -3 237 58 -170 c32 -93 69 -199
81 -235 l23 -65 61 -3 62 -3 0 366 0 365 -61 0 -60 0 3 -210 c2 -116 3 -210 2
-210 0 0 -31 95 -69 210 l-69 210 -73 0 -73 0 0 -365z"/>
<path d="M5060 1965 l0 -365 190 0 190 0 0 65 0 65 -115 0 -115 0 0 90 0 90
90 0 90 0 0 60 0 60 -90 0 -90 0 0 85 0 85 115 0 115 0 0 65 0 65 -190 0 -190
0 0 -365z"/>
<path d="M5450 2260 l0 -70 60 0 60 0 0 -295 0 -295 75 0 75 0 0 295 0 295 60
0 60 0 1 53 c0 28 2 48 5 42 4 -11 124 -664 124 -677 0 -5 31 -8 68 -8 l68 0
40 240 39 241 11 -73 c6 -40 24 -148 39 -240 l30 -168 67 0 c38 0 68 4 68 10
0 10 116 658 125 698 5 21 3 22 -59 22 -53 0 -66 -3 -69 -17 -3 -10 -15 -101
-27 -203 -12 -102 -25 -203 -29 -225 l-9 -40 -2 55 c-1 30 -16 138 -33 240
l-32 185 -67 3 c-57 2 -67 0 -72 -15 -6 -23 -53 -327 -64 -413 -7 -62 -8 -56
-30 145 -13 116 -26 227 -29 248 l-6 37 -273 0 -274 0 0 -70z"/>
<path d="M7110 1966 l0 -366 70 0 70 0 0 145 c0 145 0 145 23 145 21 0 27 -12
64 -142 l40 -143 76 -3 c42 -2 77 1 77 5 0 5 -22 76 -50 157 l-50 149 35 38
c42 46 58 104 53 184 -5 74 -30 128 -76 163 -34 26 -41 27 -184 30 l-148 4 0
-366z m209 243 c37 -13 51 -41 51 -105 0 -58 -32 -94 -85 -94 l-35 0 0 105 c0
117 1 118 69 94z"/>
<path d="M7610 1965 l0 -365 75 0 75 0 0 118 c0 95 4 125 20 161 11 24 22 42
24 40 2 -2 25 -75 51 -161 l49 -158 77 0 78 0 -34 93 c-18 50 -56 154 -84 230
l-50 137 74 135 74 136 -76 -3 -76 -3 -63 -140 -63 -140 -1 143 0 142 -75 0
-75 0 0 -365z"/>
</g>
</svg>
